<?xml version="1.0" encoding="UTF-8"?>
<!DOCTYPE svg PUBLIC "-//W3C//DTD SVG 1.1//EN" "http://www.w3.org/Graphics/SVG/1.1/DTD/svg11.dtd">
<svg version="1.1" xmlns="http://www.w3.org/2000/svg" xmlns:xlink="http://www.w3.org/1999/xlink" x="0" y="0" width="37.077" height="30.421" viewBox="0, 0, 37.077, 30.421">
  <g id="Layer_1" transform="translate(-589.401, -259.834)">
    <g>
      <path d="M602.401,284.541 C599.104,283.346 596.419,280.356 596.419,275.756 C596.419,270.702 599.993,266.181 605.501,266.181 C606.132,266.181 607.643,266.279 609.311,267.099 L611.107,262.558 C608.995,261.62 607.041,261.334 605.372,261.334 C601.463,261.334 598.058,262.361 595.304,264.957 C592.964,267.138 590.901,270.712 590.901,275.687 C590.901,279.714 592.135,283.129 595.304,286.17 C596.706,287.502 598.354,288.628 600.516,289.309 L602.401,284.541 z" fill="#71B17F"/>
      <path d="M602.401,284.541 C599.104,283.346 596.419,280.356 596.419,275.756 C596.419,270.702 599.993,266.181 605.501,266.181 C606.132,266.181 607.643,266.279 609.311,267.099 L611.107,262.558 C608.995,261.62 607.041,261.334 605.372,261.334 C601.463,261.334 598.058,262.361 595.304,264.957 C592.964,267.138 590.901,270.712 590.901,275.687 C590.901,279.714 592.135,283.129 595.304,286.17 C596.706,287.502 598.354,288.628 600.516,289.309 L602.401,284.541 z" fill-opacity="0" stroke="#71B17F" stroke-width="1"/>
    </g>
    <g>
      <path d="M606.127,280.381 C603.807,280.381 601.927,278.501 601.927,276.181 C601.927,273.861 603.807,271.981 606.127,271.981 C608.446,271.981 610.327,273.861 610.327,276.181 C610.327,278.501 608.446,280.381 606.127,280.381 z" fill="#71B17F"/>
      <path d="M606.127,280.381 C603.807,280.381 601.927,278.501 601.927,276.181 C601.927,273.861 603.807,271.981 606.127,271.981 C608.446,271.981 610.327,273.861 610.327,276.181 C610.327,278.501 608.446,280.381 606.127,280.381 z" fill-opacity="0" stroke="#71B17F" stroke-width="1"/>
    </g>
    <g>
      <path d="M615.37,276.58 C615.367,276.539 616.948,276.537 616.948,276.537 C617.307,279.355 616.354,282.341 614.276,284.06 C614.264,284.07 613.072,282.981 613.073,282.981 C615.01,280.872 615.557,279.382 615.37,276.58 z" fill="#71B17F"/>
      <path d="M615.37,276.58 C615.367,276.539 616.948,276.537 616.948,276.537 C617.307,279.355 616.354,282.341 614.276,284.06 C614.264,284.07 613.072,282.981 613.073,282.981 C615.01,280.872 615.557,279.382 615.37,276.58 z" fill-opacity="0" stroke="#71B17F" stroke-width="0.25"/>
    </g>
    <g>
      <path d="M619.692,276.736 C619.69,276.695 621.322,276.716 621.322,276.716 C621.63,280.337 619.854,284.325 617.51,286.888 C617.499,286.899 616.213,285.685 616.213,285.684 C618.213,283.372 619.859,279.936 619.692,276.736 z" fill="#71B17F"/>
      <path d="M619.692,276.736 C619.69,276.695 621.322,276.716 621.322,276.716 C621.63,280.337 619.854,284.325 617.51,286.888 C617.499,286.899 616.213,285.685 616.213,285.684 C618.213,283.372 619.859,279.936 619.692,276.736 z" fill-opacity="0" stroke="#71B17F" stroke-width="0.25"/>
    </g>
    <g>
      <path d="M624.079,276.555 C624.077,276.514 625.969,276.555 625.969,276.555 C626.126,280.787 624.204,286.724 620.829,289.755 C620.829,289.755 619.517,288.443 619.517,288.443 C622.451,285.5 624.304,280.426 624.079,276.555 z" fill="#71B17F"/>
      <path d="M624.079,276.555 C624.077,276.514 625.969,276.555 625.969,276.555 C626.126,280.787 624.204,286.724 620.829,289.755 C620.829,289.755 619.517,288.443 619.517,288.443 C622.451,285.5 624.304,280.426 624.079,276.555 z" fill-opacity="0" stroke="#71B17F" stroke-width="0.25"/>
    </g>
  </g>
</svg>
