<?xml version="1.0" encoding="utf-8"?>
<!-- Generator: Adobe Illustrator 21.1.0, SVG Export Plug-In . SVG Version: 6.00 Build 0)  -->
<svg version="1.1" id="Layer_1" xmlns="http://www.w3.org/2000/svg" xmlns:xlink="http://www.w3.org/1999/xlink" x="0px" y="0px"
	 viewBox="0 0 1294 518" style="enable-background:new 0 0 1294 518;" xml:space="preserve">
<g>
	<path d="M162.6,123.1v277.8h-54.1V123.1H162.6z"/>
	<path d="M828.4,274L733,123.2h64.1l59.6,96.6l59.6-96.6h64.1L882.5,274v127h-54.1V274L828.4,274z"/>
</g>
<path d="M367.3,352.1c-33.4-12.1-60.6-42.4-60.6-89c0-51.2,36.2-97,92-97c6.4,0,21.7,1,38.6,9.3l18.2-46
	c-21.4-9.5-41.2-12.4-58.1-12.4c-39.6,0-74.1,10.4-102,36.7c-23.7,22.1-44.6,58.3-44.6,108.7c0,40.8,12.5,75.4,44.6,106.2
	c14.2,13.5,30.9,24.9,52.8,31.8L367.3,352.1z"/>
<polygon points="1185.2,354.4 1107.1,354.4 1107.1,278.5 1163.6,278.5 1182.1,231.9 1107.1,231.9 1107.1,169.8 1167,169.8 
	1185.5,123.1 1052.9,123.1 1052.9,401 1166.8,401 "/>
<polygon points="666.2,354.4 591.5,354.4 591.5,278.5 644.5,278.5 663,231.9 591.5,231.9 591.5,169.8 647.9,169.8 666.4,123.1 
	537.4,123.1 537.4,401 647.7,401 "/>
</svg>
