<?xml version="1.0" encoding="UTF-8"?>
<!DOCTYPE svg PUBLIC "-//W3C//DTD SVG 1.1//EN" "http://www.w3.org/Graphics/SVG/1.1/DTD/svg11.dtd">
<svg version="1.1" xmlns="http://www.w3.org/2000/svg" xmlns:xlink="http://www.w3.org/1999/xlink" x="0" y="0" width="37.077" height="30.421" viewBox="0, 0, 37.077, 30.421">
  <g id="Layer_1" transform="translate(-535.432, -260.057)">
    <g>
      <path d="M548.432,284.764 C545.135,283.57 542.45,280.579 542.45,275.979 C542.45,270.925 546.023,266.404 551.531,266.404 C552.163,266.404 553.673,266.503 555.342,267.322 L557.138,262.781 C555.026,261.844 553.071,261.557 551.403,261.557 C547.494,261.557 544.089,262.584 541.335,265.18 C538.995,267.362 536.932,270.935 536.932,275.91 C536.932,279.937 538.166,283.353 541.335,286.393 C542.736,287.726 544.385,288.851 546.546,289.532 L548.432,284.764 z" fill="#A42382"/>
      <path d="M548.432,284.764 C545.135,283.57 542.45,280.579 542.45,275.979 C542.45,270.925 546.023,266.404 551.531,266.404 C552.163,266.404 553.673,266.503 555.342,267.322 L557.138,262.781 C555.026,261.844 553.071,261.557 551.403,261.557 C547.494,261.557 544.089,262.584 541.335,265.18 C538.995,267.362 536.932,270.935 536.932,275.91 C536.932,279.937 538.166,283.353 541.335,286.393 C542.736,287.726 544.385,288.851 546.546,289.532 L548.432,284.764 z" fill-opacity="0" stroke="#A42382" stroke-width="1"/>
    </g>
    <g>
      <path d="M552.157,280.604 C549.838,280.604 547.957,278.724 547.957,276.404 C547.957,274.085 549.838,272.204 552.157,272.204 C554.477,272.204 556.357,274.085 556.357,276.404 C556.357,278.724 554.477,280.604 552.157,280.604 z" fill="#A42382"/>
      <path d="M552.157,280.604 C549.838,280.604 547.957,278.724 547.957,276.404 C547.957,274.085 549.838,272.204 552.157,272.204 C554.477,272.204 556.357,274.085 556.357,276.404 C556.357,278.724 554.477,280.604 552.157,280.604 z" fill-opacity="0" stroke="#A42382" stroke-width="1"/>
    </g>
    <g>
      <path d="M561.401,276.803 C561.398,276.762 562.978,276.76 562.978,276.76 C563.338,279.578 562.384,282.564 560.306,284.283 C560.294,284.293 559.103,283.205 559.103,283.205 C561.041,281.095 561.588,279.606 561.401,276.803 z" fill="#A42382"/>
      <path d="M561.401,276.803 C561.398,276.762 562.978,276.76 562.978,276.76 C563.338,279.578 562.384,282.564 560.306,284.283 C560.294,284.293 559.103,283.205 559.103,283.205 C561.041,281.095 561.588,279.606 561.401,276.803 z" fill-opacity="0" stroke="#A42382" stroke-width="0.25"/>
    </g>
    <g>
      <path d="M565.722,276.96 C565.72,276.918 567.353,276.939 567.353,276.939 C567.661,280.56 565.884,284.549 563.541,287.111 C563.53,287.123 562.244,285.908 562.244,285.908 C564.244,283.595 565.89,280.159 565.722,276.96 z" fill="#A42382"/>
      <path d="M565.722,276.96 C565.72,276.918 567.353,276.939 567.353,276.939 C567.661,280.56 565.884,284.549 563.541,287.111 C563.53,287.123 562.244,285.908 562.244,285.908 C564.244,283.595 565.89,280.159 565.722,276.96 z" fill-opacity="0" stroke="#A42382" stroke-width="0.25"/>
    </g>
    <g>
      <path d="M570.11,276.779 C570.108,276.738 572,276.779 572,276.779 C572.156,281.011 570.235,286.947 566.86,289.979 C566.86,289.979 565.548,288.666 565.548,288.666 C568.482,285.723 570.334,280.649 570.11,276.779 z" fill="#A42382"/>
      <path d="M570.11,276.779 C570.108,276.738 572,276.779 572,276.779 C572.156,281.011 570.235,286.947 566.86,289.979 C566.86,289.979 565.548,288.666 565.548,288.666 C568.482,285.723 570.334,280.649 570.11,276.779 z" fill-opacity="0" stroke="#A42382" stroke-width="0.25"/>
    </g>
  </g>
</svg>
