<?xml version="1.0" encoding="UTF-8"?>
<!DOCTYPE svg PUBLIC "-//W3C//DTD SVG 1.1//EN" "http://www.w3.org/Graphics/SVG/1.1/DTD/svg11.dtd">
<svg version="1.1" xmlns="http://www.w3.org/2000/svg" xmlns:xlink="http://www.w3.org/1999/xlink" x="0" y="0" width="37.077" height="30.421" viewBox="0, 0, 37.077, 30.421">
  <g id="Layer_1" transform="translate(-475.682, -262.702)">
    <g>
      <path d="M488.682,287.409 C485.385,286.214 482.7,283.223 482.7,278.623 C482.7,273.569 486.273,269.048 491.781,269.048 C492.413,269.048 493.923,269.147 495.592,269.966 L497.388,265.426 C495.276,264.488 493.321,264.202 491.653,264.202 C487.744,264.202 484.339,265.228 481.584,267.824 C479.245,270.006 477.182,273.579 477.182,278.554 C477.182,282.582 478.416,285.997 481.584,289.037 C482.986,290.37 484.635,291.495 486.796,292.176 L488.682,287.409 z" fill="#F1F1F1"/>
      <path d="M488.682,287.409 C485.385,286.214 482.7,283.223 482.7,278.623 C482.7,273.569 486.273,269.048 491.781,269.048 C492.413,269.048 493.923,269.147 495.592,269.966 L497.388,265.426 C495.276,264.488 493.321,264.202 491.653,264.202 C487.744,264.202 484.339,265.228 481.584,267.824 C479.245,270.006 477.182,273.579 477.182,278.554 C477.182,282.582 478.416,285.997 481.584,289.037 C482.986,290.37 484.635,291.495 486.796,292.176 L488.682,287.409 z" fill-opacity="0" stroke="#F1F1F1" stroke-width="1"/>
    </g>
    <g>
      <path d="M492.407,283.249 C490.088,283.249 488.207,281.368 488.207,279.049 C488.207,276.729 490.088,274.849 492.407,274.849 C494.727,274.849 496.607,276.729 496.607,279.049 C496.607,281.368 494.727,283.249 492.407,283.249 z" fill="#F1F1F1"/>
      <path d="M492.407,283.249 C490.088,283.249 488.207,281.368 488.207,279.049 C488.207,276.729 490.088,274.849 492.407,274.849 C494.727,274.849 496.607,276.729 496.607,279.049 C496.607,281.368 494.727,283.249 492.407,283.249 z" fill-opacity="0" stroke="#F1F1F1" stroke-width="1"/>
    </g>
    <g>
      <path d="M501.651,279.448 C501.648,279.407 503.228,279.405 503.228,279.405 C503.588,282.223 502.634,285.208 500.556,286.927 C500.544,286.937 499.353,285.849 499.353,285.849 C501.291,283.74 501.838,282.25 501.651,279.448 z" fill="#F1F1F1"/>
      <path d="M501.651,279.448 C501.648,279.407 503.228,279.405 503.228,279.405 C503.588,282.223 502.634,285.208 500.556,286.927 C500.544,286.937 499.353,285.849 499.353,285.849 C501.291,283.74 501.838,282.25 501.651,279.448 z" fill-opacity="0" stroke="#F1F1F1" stroke-width="0.25"/>
    </g>
    <g>
      <path d="M505.972,279.604 C505.97,279.563 507.603,279.583 507.603,279.583 C507.911,283.205 506.134,287.193 503.791,289.755 C503.78,289.767 502.494,288.552 502.494,288.552 C504.494,286.24 506.14,282.803 505.972,279.604 z" fill="#F1F1F1"/>
      <path d="M505.972,279.604 C505.97,279.563 507.603,279.583 507.603,279.583 C507.911,283.205 506.134,287.193 503.791,289.755 C503.78,289.767 502.494,288.552 502.494,288.552 C504.494,286.24 506.14,282.803 505.972,279.604 z" fill-opacity="0" stroke="#F1F1F1" stroke-width="0.25"/>
    </g>
    <g>
      <path d="M510.36,279.423 C510.358,279.382 512.25,279.423 512.25,279.423 C512.406,283.655 510.485,289.592 507.11,292.623 C507.11,292.623 505.798,291.311 505.798,291.31 C508.732,288.367 510.584,283.293 510.36,279.423 z" fill="#F1F1F1"/>
      <path d="M510.36,279.423 C510.358,279.382 512.25,279.423 512.25,279.423 C512.406,283.655 510.485,289.592 507.11,292.623 C507.11,292.623 505.798,291.311 505.798,291.31 C508.732,288.367 510.584,283.293 510.36,279.423 z" fill-opacity="0" stroke="#F1F1F1" stroke-width="0.25"/>
    </g>
  </g>
</svg>
