<?xml version="1.0" encoding="UTF-8"?>
<!DOCTYPE svg PUBLIC "-//W3C//DTD SVG 1.1//EN" "http://www.w3.org/Graphics/SVG/1.1/DTD/svg11.dtd">
<svg version="1.1" xmlns="http://www.w3.org/2000/svg" xmlns:xlink="http://www.w3.org/1999/xlink" x="0" y="0" width="37.077" height="30.421" viewBox="0, 0, 37.077, 30.421">
  <g id="Layer_1" transform="translate(-409.932, -262.925)">
    <g>
      <path d="M422.932,287.632 C419.635,286.438 416.95,283.447 416.95,278.847 C416.95,273.793 420.523,269.272 426.031,269.272 C426.663,269.272 428.173,269.37 429.842,270.19 L431.638,265.649 C429.526,264.711 427.571,264.425 425.903,264.425 C421.994,264.425 418.589,265.452 415.834,268.048 C413.495,270.229 411.432,273.803 411.432,278.778 C411.432,282.805 412.666,286.22 415.834,289.261 C417.236,290.593 418.885,291.719 421.046,292.4 L422.932,287.632 z" fill="#1CB5DF"/>
      <path d="M422.932,287.632 C419.635,286.438 416.95,283.447 416.95,278.847 C416.95,273.793 420.523,269.272 426.031,269.272 C426.663,269.272 428.173,269.37 429.842,270.19 L431.638,265.649 C429.526,264.711 427.571,264.425 425.903,264.425 C421.994,264.425 418.589,265.452 415.834,268.048 C413.495,270.229 411.432,273.803 411.432,278.778 C411.432,282.805 412.666,286.22 415.834,289.261 C417.236,290.593 418.885,291.719 421.046,292.4 L422.932,287.632 z" fill-opacity="0" stroke="#1CB5DF" stroke-width="1"/>
    </g>
    <g>
      <path d="M426.657,283.472 C424.338,283.472 422.457,281.592 422.457,279.272 C422.457,276.952 424.338,275.072 426.657,275.072 C428.977,275.072 430.857,276.952 430.857,279.272 C430.857,281.592 428.977,283.472 426.657,283.472 z" fill="#1CB5DF"/>
      <path d="M426.657,283.472 C424.338,283.472 422.457,281.592 422.457,279.272 C422.457,276.952 424.338,275.072 426.657,275.072 C428.977,275.072 430.857,276.952 430.857,279.272 C430.857,281.592 428.977,283.472 426.657,283.472 z" fill-opacity="0" stroke="#1CB5DF" stroke-width="1"/>
    </g>
    <g>
      <path d="M435.901,279.671 C435.898,279.63 437.478,279.628 437.478,279.628 C437.838,282.446 436.884,285.432 434.806,287.151 C434.794,287.161 433.603,286.072 433.603,286.072 C435.541,283.963 436.088,282.473 435.901,279.671 z" fill="#1CB5DF"/>
      <path d="M435.901,279.671 C435.898,279.63 437.478,279.628 437.478,279.628 C437.838,282.446 436.884,285.432 434.806,287.151 C434.794,287.161 433.603,286.072 433.603,286.072 C435.541,283.963 436.088,282.473 435.901,279.671 z" fill-opacity="0" stroke="#1CB5DF" stroke-width="0.25"/>
    </g>
    <g>
      <path d="M440.222,279.827 C440.22,279.786 441.853,279.807 441.853,279.807 C442.161,283.428 440.384,287.416 438.041,289.979 C438.03,289.99 436.744,288.776 436.744,288.775 C438.744,286.463 440.39,283.027 440.222,279.827 z" fill="#1CB5DF"/>
      <path d="M440.222,279.827 C440.22,279.786 441.853,279.807 441.853,279.807 C442.161,283.428 440.384,287.416 438.041,289.979 C438.03,289.99 436.744,288.776 436.744,288.775 C438.744,286.463 440.39,283.027 440.222,279.827 z" fill-opacity="0" stroke="#1CB5DF" stroke-width="0.25"/>
    </g>
    <g>
      <path d="M444.61,279.646 C444.608,279.605 446.5,279.646 446.5,279.646 C446.656,283.878 444.735,289.815 441.36,292.846 C441.36,292.846 440.048,291.534 440.048,291.534 C442.982,288.591 444.834,283.517 444.61,279.646 z" fill="#1CB5DF"/>
      <path d="M444.61,279.646 C444.608,279.605 446.5,279.646 446.5,279.646 C446.656,283.878 444.735,289.815 441.36,292.846 C441.36,292.846 440.048,291.534 440.048,291.534 C442.982,288.591 444.834,283.517 444.61,279.646 z" fill-opacity="0" stroke="#1CB5DF" stroke-width="0.25"/>
    </g>
  </g>
</svg>
